<svg width="21" height="24" viewBox="0 0 21 24" fill="none" xmlns="http://www.w3.org/2000/svg">
<g clip-path="url(#clip0_94_4)">
<path d="M19 5.82542L2 0V18.1562L19 24V5.82542Z" fill="#1A1A12"/>
<path d="M10.2325 22.364C8.8698 22.364 7.60047 22.098 6.42447 21.566C5.2578 21.034 4.24047 20.3013 3.37247 19.368C2.50447 18.4253 1.82314 17.3427 1.32847 16.12C0.843135 14.888 0.600469 13.572 0.600469 12.172C0.600469 10.6973 0.861802 9.344 1.38447 8.112C1.91647 6.88 2.6398 5.81133 3.55447 4.906C4.46914 4.00067 5.50514 3.30067 6.66247 2.806C7.82914 2.31133 9.04247 2.064 10.3025 2.064C11.7118 2.064 13.0791 2.39533 14.4045 3.058C15.7391 3.71133 16.9151 4.724 17.9325 6.096L14.8805 7.734C14.2551 6.96867 13.5365 6.39933 12.7245 6.026C11.9218 5.64333 11.1005 5.452 10.2605 5.452C9.43914 5.452 8.65047 5.62 7.89447 5.956C7.1478 6.292 6.48047 6.768 5.89247 7.384C5.3138 7.99067 4.85647 8.70933 4.52047 9.54C4.18447 10.3613 4.01647 11.262 4.01647 12.242C4.01647 13.166 4.1798 14.0387 4.50647 14.86C4.83314 15.672 5.28114 16.386 5.85047 17.002C6.42914 17.6087 7.09647 18.0847 7.85247 18.43C8.60847 18.7753 9.42047 18.948 10.2885 18.948C10.8671 18.948 11.4318 18.8593 11.9825 18.682C12.5425 18.4953 13.0651 18.2293 13.5505 17.884C14.0451 17.5387 14.4838 17.1187 14.8665 16.624C15.2585 16.1293 15.5851 15.5693 15.8465 14.944H12.2765V11.962H19.8645C19.9018 13.39 19.6778 14.7293 19.1925 15.98C18.7071 17.2307 18.0211 18.3367 17.1345 19.298C16.2478 20.2593 15.2165 21.0107 14.0405 21.552C12.8645 22.0933 11.5951 22.364 10.2325 22.364Z" fill="url(#paint0_linear_94_4)"/>
</g>
<defs>
<linearGradient id="paint0_linear_94_4" x1="10.0397" y1="-5" x2="10.0397" y2="29" gradientUnits="userSpaceOnUse">
<stop stop-color="#FAFF00"/>
<stop offset="1" stop-color="#FFC700"/>
</linearGradient>
<clipPath id="clip0_94_4">
<rect width="21" height="24" fill="white"/>
</clipPath>
</defs>
</svg>
